<svg width="27" height="28" viewBox="0 0 27 28" fill="none" xmlns="http://www.w3.org/2000/svg">
<path d="M5.31311 25.2438C3.79269 25.2438 2.41708 24.6094 1.44802 23.6031C0.551361 24.5328 0 25.7961 0 27.1797C0 27.6336 0.373143 28 0.835395 28H9.7964C10.2586 28 10.6318 27.6336 10.6318 27.1797C10.6318 25.7961 10.0804 24.5328 9.1782 23.5977C8.20915 24.6094 6.83353 25.2438 5.31311 25.2438Z" fill="black"/>
<path d="M25.5519 23.5977C24.5829 24.6094 23.2128 25.2383 21.6868 25.2383C20.1609 25.2383 18.7908 24.6039 17.8217 23.5977C16.9251 24.5328 16.3682 25.7906 16.3682 27.1797C16.3682 27.6336 16.7413 28 17.2036 28H26.1645C26.6268 28 26.9999 27.6336 26.9999 27.1797C27.0055 25.7961 26.4541 24.5328 25.5519 23.5977Z" fill="black"/>
<path d="M5.31833 23.5977C7.32685 23.5977 8.95507 21.9988 8.95507 20.0266C8.95507 18.0543 7.32685 16.4555 5.31833 16.4555C3.30981 16.4555 1.68158 18.0543 1.68158 20.0266C1.68158 21.9988 3.30981 23.5977 5.31833 23.5977Z" fill="black"/>
<path d="M24.2561 22.5572C25.676 21.1627 25.676 18.9016 24.2561 17.507C22.8361 16.1124 20.534 16.1124 19.114 17.507C17.6941 18.9016 17.6941 21.1627 19.114 22.5572C20.534 23.9518 22.8361 23.9518 24.2561 22.5572Z" fill="black"/>
<path d="M17.12 14.8039C18.1392 14.7601 19.1083 14.4648 19.9659 13.9344C20.8347 14.3172 21.4474 14.6836 21.4529 14.689C21.7091 14.8422 22.0321 14.8531 22.2995 14.7055C22.5612 14.5578 22.7283 14.2844 22.7283 13.989C22.7283 12.939 22.5835 12.0039 22.2995 11.2164C22.5835 10.5273 22.7283 9.80546 22.7283 9.05077C22.7283 7.26796 21.8985 5.67109 20.5953 4.61015C20.8849 5.49062 21.0464 6.42578 21.0464 7.40468C21.0408 10.4617 19.487 13.1687 17.12 14.8039Z" fill="black"/>
<path d="M4.71076 14.7055C4.97251 14.8531 5.29553 14.8422 5.55729 14.6891C5.56843 14.6836 6.45951 14.1477 7.70703 13.6062C8.93228 14.3938 10.3469 14.8094 11.8283 14.8094C15.9886 14.8094 19.3691 11.4898 19.3691 7.40469C19.3691 3.31953 15.983 0 11.8227 0C7.66248 0 4.28192 3.31953 4.28192 7.40469C4.28192 8.40547 4.48242 9.37344 4.87227 10.2867C4.47685 11.3313 4.28192 12.5781 4.28192 13.9945C4.28192 14.2898 4.449 14.5633 4.71076 14.7055ZM15.181 8.225C14.7132 8.225 14.3679 7.84766 14.3456 7.40469C14.3234 6.96172 14.7466 6.58437 15.181 6.58437C15.6488 6.58437 15.9941 6.96172 16.0164 7.40469C16.0331 7.84766 15.6154 8.225 15.181 8.225ZM11.8227 6.58437C12.2906 6.58437 12.6359 6.96172 12.6581 7.40469C12.6804 7.84766 12.2571 8.225 11.8227 8.225C11.3549 8.225 11.0096 7.84766 10.9873 7.40469C10.9706 6.96172 11.3883 6.58437 11.8227 6.58437ZM8.47003 6.58437C8.93785 6.58437 9.28314 6.96172 9.30542 7.40469C9.3277 7.84766 8.90443 8.225 8.47003 8.225C8.00221 8.225 7.65691 7.84766 7.63463 7.40469C7.61793 6.96172 8.03562 6.58437 8.47003 6.58437Z" fill="black"/>
</svg>
