<svg width="27" height="29" viewBox="0 0 27 29" fill="none" xmlns="http://www.w3.org/2000/svg">
<path d="M14.5053 4.53125C13.5574 4.53125 12.7819 3.7666 12.7819 2.83203C12.7819 1.89746 13.5574 1.13281 14.5053 1.13281C15.4532 1.13281 16.2287 1.89746 16.2287 2.83203C16.2287 3.7666 15.4532 4.53125 14.5053 4.53125Z" fill="black"/>
<path d="M21.8528 5.78868C21.6 5.63575 21.284 5.61875 21.014 5.74903L19.6755 6.40606V11.1356L21.014 11.7926C21.1347 11.8549 21.2668 11.8832 21.3989 11.8832C21.554 11.8832 21.7149 11.8379 21.8528 11.7586C22.1055 11.6057 22.2606 11.3281 22.2606 11.0336V6.50235C22.2606 6.21915 22.1055 5.94727 21.8528 5.78868Z" fill="black"/>
<path d="M17.1881 4.96171C16.5562 5.73769 15.5853 6.23046 14.5053 6.23046C13.3908 6.23046 12.397 5.70371 11.7651 4.89374C11.0298 5.71503 9.95552 6.23046 8.76063 6.23046C7.53126 6.23046 6.43403 5.68671 5.69297 4.82578C5.1185 5.17695 4.73935 5.79999 4.73935 6.51367V11.0449C4.73935 12.1381 5.64126 13.0273 6.74999 13.0273H15.9415C17.0502 13.0273 17.9521 12.1381 17.9521 11.0449V6.51367C17.9521 5.88495 17.6534 5.32421 17.1881 4.96171Z" fill="black"/>
<path d="M8.76061 4.53125C7.49104 4.53125 6.46274 3.51738 6.46274 2.26562C6.46274 1.01387 7.49104 0 8.76061 0C10.0302 0 11.0585 1.01387 11.0585 2.26562C11.0585 3.51738 10.0302 4.53125 8.76061 4.53125Z" fill="black"/>
<path d="M24.4149 16.5391H2.58511C1.16043 16.5391 0 17.6832 0 19.0879V26.4512C0 27.8559 1.16043 29 2.58511 29H24.4149C25.8396 29 27 27.8559 27 26.4512V19.0879C27 17.6832 25.8396 16.5391 24.4149 16.5391ZM6.52021 26.4455C5.85957 26.4512 5.41149 26.4512 5.10128 26.4512C4.45787 26.4512 4.41766 26.4455 4.35447 26.4342C3.94085 26.3662 3.63638 26.0094 3.63638 25.5959V19.9375C3.63638 19.4674 4.02128 19.0879 4.49809 19.0879C4.97489 19.0879 5.35979 19.4674 5.35979 19.9375V24.752C5.70447 24.752 6.11234 24.752 6.50298 24.7463H6.50872C6.97979 24.7463 7.37043 25.1258 7.37043 25.5902C7.37617 26.0604 6.99702 26.4455 6.52021 26.4455ZM10.5357 25.6016C10.5357 26.0717 10.1509 26.4512 9.67404 26.4512C9.19723 26.4512 8.81234 26.0717 8.81234 25.6016V19.9375C8.81234 19.4674 9.19723 19.0879 9.67404 19.0879C10.1509 19.0879 10.5357 19.4674 10.5357 19.9375V25.6016ZM17.7338 20.215L15.8611 25.7828V25.7885C15.7232 26.1793 15.3498 26.4455 14.9304 26.4512H14.9247C14.5053 26.4512 14.1319 26.1906 13.9883 25.7998V25.7941L12.0236 20.215C11.8685 19.7732 12.104 19.2861 12.5579 19.1332C13.006 18.9803 13.5 19.2125 13.6551 19.66L14.9132 23.2283L16.1081 19.677C16.2574 19.2295 16.7457 18.9916 17.1996 19.1389C17.6419 19.2918 17.8832 19.7732 17.7338 20.215ZM22.3181 21.9199C22.7949 21.9199 23.1798 22.2994 23.1798 22.7695C23.1798 23.2396 22.7949 23.6191 22.3181 23.6191H20.9394V24.752H22.4962C22.973 24.752 23.3579 25.1314 23.3579 25.6016C23.3579 26.0717 22.973 26.4512 22.4962 26.4512H20.0777C19.6009 26.4512 19.216 26.0717 19.216 25.6016V19.9375C19.216 19.4674 19.6009 19.0879 20.0777 19.0879H22.4962C22.973 19.0879 23.3579 19.4674 23.3579 19.9375C23.3579 20.4076 22.973 20.7871 22.4962 20.7871H20.9394V21.9199H22.3181Z" fill="black"/>
</svg>
