<svg width="27" height="14" viewBox="0 0 27 14" fill="none" xmlns="http://www.w3.org/2000/svg">
<g clip-path="url(#clip0)">
<path d="M7.57556 1.28204C5.86021 -0.425422 3.08268 -0.431498 1.36733 1.27597C1.36122 1.28204 1.36122 1.28204 1.35512 1.28812C0.561541 2.07805 0.0853933 3.13534 0.00603542 4.2534C-0.0305913 4.86711 0.0609755 5.48083 0.274631 6.05809C0.500496 6.65357 0.842345 7.20045 1.28797 7.66225L4.19979 10.7491C4.3402 10.8949 4.57217 10.901 4.71867 10.7673C4.72478 10.7612 4.73088 10.7551 4.73699 10.7491L7.64881 7.66225C8.09443 7.20045 8.43628 6.65357 8.66215 6.05809C8.8758 5.48083 8.96737 4.86711 8.93075 4.2534C8.84528 3.13534 8.36913 2.07805 7.57556 1.28204ZM4.46229 6.38621C3.29023 6.38621 2.33794 5.42006 2.33794 4.22302C2.33794 3.02597 3.29633 2.0659 4.46229 2.0659C5.62824 2.0659 6.58664 3.03204 6.58664 4.22909C6.58664 5.42614 5.63434 6.38621 4.46229 6.38621Z" fill="black"/>
<path d="M26.7253 6.05816C26.9389 5.48091 27.0305 4.86719 26.9939 4.25347C26.9206 3.13542 26.4445 2.0842 25.6509 1.2882C23.9294 -0.425345 21.1519 -0.431422 19.4305 1.27604C19.4244 1.28212 19.4244 1.28212 19.4183 1.2882C18.6247 2.0842 18.1485 3.13542 18.0692 4.25347C18.0325 4.86719 18.118 5.48091 18.3378 6.05816C18.5636 6.65365 18.9055 7.20052 19.3511 7.66233L22.2629 10.7491C22.4033 10.895 22.6353 10.901 22.7818 10.7674C22.7879 10.7613 22.794 10.7552 22.8001 10.7491L25.7119 7.66233C26.1515 7.20052 26.4994 6.65365 26.7253 6.05816ZM22.5315 6.38629C21.3595 6.38629 20.4072 5.42014 20.4072 4.22309C20.4072 3.02604 21.3595 2.06597 22.5315 2.06597C23.7036 2.06597 24.6559 3.03212 24.6559 4.22917C24.6559 5.42622 23.7036 6.38629 22.5315 6.38629Z" fill="black"/>
<path d="M4.64549 14C5.35348 14 5.92743 13.4287 5.92743 12.724C5.92743 12.0192 5.35348 11.4479 4.64549 11.4479C3.9375 11.4479 3.36356 12.0192 3.36356 12.724C3.36356 13.4287 3.9375 14 4.64549 14Z" fill="black"/>
<path d="M8.18608 14C8.89407 14 9.46802 13.4287 9.46802 12.724C9.46802 12.0192 8.89407 11.4479 8.18608 11.4479C7.47809 11.4479 6.90414 12.0192 6.90414 12.724C6.90414 13.4287 7.47809 14 8.18608 14Z" fill="black"/>
<path d="M11.7267 14C12.4347 14 13.0086 13.4287 13.0086 12.724C13.0086 12.0192 12.4347 11.4479 11.7267 11.4479C11.0187 11.4479 10.4447 12.0192 10.4447 12.724C10.4447 13.4287 11.0187 14 11.7267 14Z" fill="black"/>
<path d="M15.2672 14C15.9752 14 16.5492 13.4287 16.5492 12.724C16.5492 12.0192 15.9752 11.4479 15.2672 11.4479C14.5592 11.4479 13.9853 12.0192 13.9853 12.724C13.9853 13.4287 14.5592 14 15.2672 14Z" fill="black"/>
<path d="M18.8078 14C19.5158 14 20.0898 13.4287 20.0898 12.724C20.0898 12.0192 19.5158 11.4479 18.8078 11.4479C18.0998 11.4479 17.5259 12.0192 17.5259 12.724C17.5259 13.4287 18.0998 14 18.8078 14Z" fill="black"/>
<path d="M22.3484 14C23.0564 14 23.6303 13.4287 23.6303 12.724C23.6303 12.0192 23.0564 11.4479 22.3484 11.4479C21.6404 11.4479 21.0665 12.0192 21.0665 12.724C21.0665 13.4287 21.6404 14 22.3484 14Z" fill="black"/>
</g>
<defs>
<clipPath id="clip0">
<rect width="27" height="14" fill="white"/>
</clipPath>
</defs>
</svg>
