<svg width="28" height="29" viewBox="0 0 28 29" fill="none" xmlns="http://www.w3.org/2000/svg">
<g clip-path="url(#clip0)">
<path d="M27.2274 27.4472H25.2779C25.2779 27.4168 25.308 27.3865 25.308 27.3562C25.2779 25.3363 23.6723 23.7229 21.6624 23.7532C20.2078 23.7532 18.9101 24.6509 18.3548 25.9914C17.3951 26.1127 16.5018 26.6465 15.9465 27.4532H12.9166C12.4216 26.5555 11.4921 26.0217 10.5083 26.0217H10.4781C9.92283 24.4083 8.16038 23.5348 6.55486 24.1293C6.02975 24.3173 5.53481 24.657 5.16663 25.0937L4.58116 25.033C3.12654 25.033 1.82884 26.0278 1.46066 27.4532H0.77258C0.338004 27.4532 0 27.7929 0 28.2296C0 28.6664 0.338004 29.006 0.77258 29.006H27.2274C27.662 29.006 28 28.6664 28 28.2296C28 27.7869 27.656 27.4472 27.2274 27.4472Z" fill="black"/>
<path d="M21.0468 11.543C20.5217 11.0153 19.8698 10.6089 19.1636 10.3602C19.0731 7.90963 18.3609 5.51369 17.0632 3.40284C16.9726 3.18447 15.3611 1.01296 14.5583 0.206229C14.2505 -0.0727917 13.7556 -0.0727917 13.4477 0.206229C10.5445 3.15415 8.96919 6.60551 8.84243 10.3602C8.13021 10.6089 7.48438 11.0153 6.95927 11.543C5.00368 13.3445 4.85278 16.3894 6.64541 18.379C6.76612 18.5367 6.95323 18.6277 7.17052 18.6277H7.2007C7.38781 18.6277 7.6051 18.567 7.72581 18.4093L9.82627 16.4865C10.2608 17.6026 10.786 18.6944 11.462 19.6831C12.0776 20.6172 13.659 20.7082 14.1177 20.7082H14.1479C14.7998 20.7082 15.9103 20.5869 16.4354 19.8408C17.1477 18.8157 17.7331 17.6693 18.1677 16.4865L20.2682 18.4093C20.3889 18.567 20.6062 18.6277 20.7933 18.6277H20.8235C21.0408 18.6277 21.2279 18.5367 21.3486 18.379C23.1472 16.3894 22.9903 13.3445 21.0468 11.543ZM13.997 12.01C12.5424 11.9797 11.3714 10.7969 11.3714 9.34113C11.3714 7.88537 12.5484 6.70256 13.997 6.70256C15.4456 6.70256 16.6226 7.88537 16.6226 9.34113C16.6226 10.7969 15.4516 11.9797 13.997 12.01Z" fill="black"/>
<path d="M14.7696 21.8243H13.2244V25.4577H14.7696V21.8243Z" fill="black"/>
<path d="M17.3046 21.2359H15.7594V24.5599H17.3046V21.2359Z" fill="black"/>
<path d="M12.2406 21.2359H10.6954V24.2809H12.2406V21.2359Z" fill="black"/>
</g>
<defs>
<clipPath id="clip0">
<rect width="28" height="29" fill="white"/>
</clipPath>
</defs>
</svg>
